<svg width="389" height="259" viewBox="0 0 389 259" fill="none" xmlns="http://www.w3.org/2000/svg">
<g filter="url(#filter0_d_2873_26077)">
<rect x="9.40039" y="9.40039" width="370" height="240" rx="10" fill="#F7FFF3"/>
<rect x="23.4004" y="21.4004" width="341.33" height="30" rx="4.42455" fill="#E1E8F3"/>
<path d="M183.89 33.1377C183.89 34.8994 184.878 36.6504 186.35 37.3164L185.727 38.1328C184.631 37.585 183.809 36.4946 183.385 35.1787C182.96 36.5645 182.117 37.7354 181.011 38.3154L180.366 37.4883C181.859 36.7793 182.858 34.9209 182.858 33.1377V31.4941H183.89V33.1377ZM188.444 30.6885V40.335H187.435V34.7168H185.286V33.8896H187.435V30.6885H188.444ZM197.425 30.6885V34.4482H198.972V35.3076H197.425V40.335H196.415V30.6885H197.425ZM194.707 31.5586V35.0928H191.334V37.1768C192.988 37.1714 194.213 37.1123 195.62 36.8545L195.717 37.6816C194.213 37.9609 192.913 38.0254 191.108 38.0361H190.324V34.2656H193.697V32.3857H190.303V31.5586H194.707ZM207.447 30.6885V35.6729H206.438V33.5996H204.332V35.3184H199.896V31.1289H200.916V32.4072H203.322V31.1289H204.332V32.7617H206.438V30.6885H207.447ZM207.447 36.1025V38.4766H202.194V39.3789H207.791V40.1953H201.174V37.7246H206.438V36.9189H201.152V36.1025H207.447ZM200.916 34.5127H203.322V33.2129H200.916V34.5127Z" fill="#5C5C5C"/>
<rect x="23.4004" y="57.4004" width="24.7775" height="24.7775" rx="4.42455" fill="#06387D"/>
<path d="M33.7617 64.8047V73.2891H32.4609V66.0938H32.4141L30.3867 67.418V66.1875L32.4961 64.8047H33.7617ZM35.918 73.2891V72.3516L38.8594 69.3867C39.7852 68.4141 40.2539 67.875 40.2539 67.1367C40.2539 66.3047 39.5742 65.7656 38.6836 65.7656C37.7461 65.7656 37.1367 66.3633 37.1367 67.2656H35.918C35.9062 65.7188 37.0898 64.6875 38.707 64.6875C40.3477 64.6875 41.4727 65.7188 41.4844 67.1016C41.4727 68.0508 41.0273 68.8008 39.4336 70.3711L37.7109 72.1172V72.1875H41.625V73.2891H35.918Z" fill="white"/>
<rect x="52.1777" y="57.4004" width="24.7775" height="24.7775" rx="4.42455" fill="#06387D"/>
<path d="M63.5391 64.8047V73.2891H62.2383V66.0938H62.1914L60.1641 67.418V66.1875L62.2734 64.8047H63.5391ZM68.918 64.8047V73.2891H67.6172V66.0938H67.5703L65.543 67.418V66.1875L67.6523 64.8047H68.918Z" fill="white"/>
<rect x="80.9551" y="57.4004" width="24.7775" height="24.7775" rx="4.42455" fill="#06387D"/>
<path d="M91.3164 64.8047V73.2891H90.0156V66.0938H89.9688L87.9414 67.418V66.1875L90.0508 64.8047H91.3164ZM96.4258 73.4062C94.457 73.4062 93.3086 71.8242 93.3086 69.0469C93.3086 66.293 94.4805 64.6875 96.4258 64.6875C98.3711 64.6875 99.543 66.293 99.543 69.0469C99.543 71.8242 98.3828 73.4062 96.4258 73.4062ZM96.4258 72.293C97.5742 72.293 98.2539 71.168 98.2539 69.0469C98.2539 66.9375 97.5625 65.7773 96.4258 65.7773C95.2891 65.7773 94.5977 66.9375 94.5977 69.0469C94.5977 71.168 95.2773 72.293 96.4258 72.293Z" fill="white"/>
<rect x="109.732" y="57.4004" width="24.7775" height="24.7775" rx="4.42455" fill="#06387D"/>
<path d="M122.289 64.6875C123.848 64.6992 125.488 65.6367 125.488 68.7422C125.488 71.7188 124.211 73.4062 122.172 73.4062C120.613 73.4062 119.512 72.4453 119.312 71.0625H120.59C120.766 71.7773 121.316 72.2812 122.172 72.2812C123.484 72.2812 124.246 71.1328 124.258 69.1992H124.152C123.695 69.9141 122.898 70.3477 121.984 70.3477C120.461 70.3477 119.242 69.1875 119.242 67.5586C119.242 65.9414 120.449 64.6758 122.289 64.6875ZM122.289 65.7656C121.258 65.7656 120.496 66.5625 120.496 67.5352C120.496 68.5195 121.234 69.293 122.266 69.293C123.285 69.293 124.082 68.4609 124.082 67.5234C124.082 66.6094 123.332 65.7656 122.289 65.7656Z" fill="white"/>
<rect x="138.511" y="57.4004" width="24.7775" height="24.7775" rx="4.42455" fill="#06387D"/>
<path d="M151.114 73.4062C149.274 73.4062 147.985 72.4102 147.997 71.0273C147.985 69.9375 148.771 69.0469 149.767 68.8945V68.8477C148.899 68.6484 148.313 67.875 148.313 66.9492C148.313 65.6484 149.497 64.6875 151.114 64.6875C152.72 64.6875 153.892 65.6484 153.903 66.9492C153.892 67.875 153.306 68.6484 152.45 68.8477V68.8945C153.435 69.0469 154.22 69.9375 154.231 71.0273C154.22 72.4102 152.931 73.4062 151.114 73.4062ZM151.114 72.3398C152.216 72.3398 152.919 71.7656 152.919 70.9336C152.919 70.0547 152.157 69.4219 151.114 69.4219C150.06 69.4219 149.286 70.0547 149.31 70.9336C149.286 71.7656 149.989 72.3398 151.114 72.3398ZM151.114 68.4023C152.005 68.4023 152.638 67.8633 152.638 67.0664C152.638 66.2812 152.017 65.7422 151.114 65.7422C150.177 65.7422 149.567 66.2695 149.567 67.0664C149.567 67.8633 150.212 68.4023 151.114 68.4023Z" fill="white"/>
<rect x="167.288" y="57.4004" width="24.7775" height="24.7775" rx="4.42455" fill="#06387D"/>
<path d="M177.72 73.2891L181.505 65.9766V65.9062H177.134V64.8047H182.841V65.9531L179.067 73.2891H177.72Z" fill="white"/>
<rect x="196.065" y="57.4004" width="24.7775" height="24.7775" rx="4.42455" fill="#06387D"/>
<path d="M208.774 73.4062C207.204 73.3945 205.563 72.4688 205.563 69.3281C205.563 66.375 206.841 64.6875 208.88 64.6875C210.438 64.6875 211.528 65.6602 211.728 67.0078H210.45C210.286 66.3164 209.735 65.8125 208.88 65.8125C207.567 65.8125 206.806 66.9609 206.806 68.8711H206.899C207.356 68.1562 208.153 67.7227 209.079 67.7227C210.591 67.7227 211.81 68.8828 211.81 70.5117C211.81 72.1523 210.603 73.418 208.774 73.4062ZM208.763 72.3281C209.794 72.3281 210.556 71.5312 210.556 70.5352C210.556 69.5625 209.817 68.7773 208.798 68.7773C207.755 68.7773 206.97 69.5977 206.958 70.5469C206.97 71.4844 207.72 72.3281 208.763 72.3281Z" fill="white"/>
<rect x="224.843" y="57.4004" width="24.7775" height="24.7775" rx="4.42455" fill="#06387D"/>
<path d="M237.364 73.4062C235.759 73.4062 234.552 72.4219 234.493 71.0742H235.747C235.817 71.8008 236.509 72.3281 237.364 72.3281C238.396 72.3281 239.134 71.5781 239.134 70.5703C239.134 69.5391 238.372 68.7891 237.306 68.7773C236.626 68.7773 236.11 69 235.817 69.5273H234.599L235.149 64.8047H239.954V65.9062H236.216L235.935 68.2852H236.017C236.368 67.9453 236.966 67.7109 237.61 67.7109C239.204 67.7109 240.388 68.8945 240.388 70.5352C240.388 72.2109 239.134 73.4062 237.364 73.4062Z" fill="white"/>
<rect x="253.62" y="57.4004" width="24.7775" height="24.7775" rx="4.42455" fill="#06387D"/>
<path d="M263.071 71.6367V70.5938L266.821 64.8047H268.415V70.5469H269.575V71.6367H268.415V73.2891H267.196V71.6367H263.071ZM264.431 70.5469H267.196V66.3398H267.103L264.431 70.4766V70.5469Z" fill="white"/>
<rect x="282.397" y="57.4004" width="24.7775" height="24.7775" rx="4.42455" fill="#06387D"/>
<path d="M295.048 73.4062C293.29 73.4062 292.036 72.457 291.989 71.0742H293.302C293.349 71.8242 294.087 72.293 295.036 72.293C296.056 72.293 296.806 71.7305 296.806 70.9102C296.806 70.0781 296.103 69.4688 294.896 69.4688H294.169V68.4141H294.896C295.856 68.4141 296.536 67.875 296.536 67.0664C296.536 66.293 295.962 65.7656 295.06 65.7656C294.204 65.7656 293.454 66.2344 293.419 67.0078H292.177C292.212 65.625 293.489 64.6875 295.071 64.6875C296.735 64.6875 297.79 65.7422 297.778 66.9961C297.79 67.957 297.192 68.6602 296.278 68.8828V68.9414C297.438 69.1055 298.106 69.8789 298.106 70.957C298.106 72.375 296.806 73.4062 295.048 73.4062Z" fill="white"/>
<rect x="311.176" y="57.4004" width="24.7775" height="24.7775" rx="4.42455" fill="#06387D"/>
<path d="M320.814 73.2891V72.3516L323.756 69.3867C324.682 68.4141 325.15 67.875 325.15 67.1367C325.15 66.3047 324.471 65.7656 323.58 65.7656C322.643 65.7656 322.033 66.3633 322.033 67.2656H320.814C320.803 65.7188 321.986 64.6875 323.604 64.6875C325.244 64.6875 326.369 65.7188 326.381 67.1016C326.369 68.0508 325.924 68.8008 324.33 70.3711L322.607 72.1172V72.1875H326.521V73.2891H320.814Z" fill="white"/>
<rect x="339.953" y="57.4004" width="24.7775" height="24.7775" rx="4.42455" fill="#06387D"/>
<path d="M353.814 64.8047V73.2891H352.514V66.0938H352.467L350.439 67.418V66.1875L352.549 64.8047H353.814Z" fill="white"/>
<rect x="34.8457" y="147.178" width="24.7775" height="24.7775" rx="4.42455" fill="#06387D"/>
<path d="M45.207 154.582V163.066H43.9062V155.871H43.8594L41.832 157.195V155.965L43.9414 154.582H45.207ZM50.2461 163.184C48.6406 163.184 47.4336 162.199 47.375 160.852H48.6289C48.6992 161.578 49.3906 162.105 50.2461 162.105C51.2773 162.105 52.0156 161.355 52.0156 160.348C52.0156 159.316 51.2539 158.566 50.1875 158.555C49.5078 158.555 48.9922 158.777 48.6992 159.305H47.4805L48.0312 154.582H52.8359V155.684H49.0977L48.8164 158.062H48.8984C49.25 157.723 49.8477 157.488 50.4922 157.488C52.0859 157.488 53.2695 158.672 53.2695 160.312C53.2695 161.988 52.0156 163.184 50.2461 163.184Z" fill="white"/>
<rect x="34.8457" y="175.955" width="24.7775" height="24.7775" rx="4.42455" fill="#06387D"/>
<path d="M45.207 183.359V191.844H43.9062V184.648H43.8594L41.832 185.973V184.742L43.9414 183.359H45.207ZM50.4336 191.961C48.8633 191.949 47.2227 191.023 47.2227 187.883C47.2227 184.93 48.5 183.242 50.5391 183.242C52.0977 183.242 53.1875 184.215 53.3867 185.562H52.1094C51.9453 184.871 51.3945 184.367 50.5391 184.367C49.2266 184.367 48.4648 185.516 48.4648 187.426H48.5586C49.0156 186.711 49.8125 186.277 50.7383 186.277C52.25 186.277 53.4688 187.438 53.4688 189.066C53.4688 190.707 52.2617 191.973 50.4336 191.961ZM50.4219 190.883C51.4531 190.883 52.2148 190.086 52.2148 189.09C52.2148 188.117 51.4766 187.332 50.457 187.332C49.4141 187.332 48.6289 188.152 48.6172 189.102C48.6289 190.039 49.3789 190.883 50.4219 190.883Z" fill="white"/>
<rect x="184.846" y="147.178" width="24.7775" height="24.7775" rx="4.42455" fill="#06387D"/>
<path d="M195.207 154.582V163.066H193.906V155.871H193.859L191.832 157.195V155.965L193.941 154.582H195.207ZM197.176 161.414V160.371L200.926 154.582H202.52V160.324H203.68V161.414H202.52V163.066H201.301V161.414H197.176ZM198.535 160.324H201.301V156.117H201.207L198.535 160.254V160.324Z" fill="white"/>
<rect x="213.623" y="147.178" width="24.7775" height="24.7775" rx="4.42455" fill="#06387D"/>
<path d="M223.984 154.582V163.066H222.684V155.871H222.637L220.609 157.195V155.965L222.719 154.582H223.984ZM229.152 163.184C227.395 163.184 226.141 162.234 226.094 160.852H227.406C227.453 161.602 228.191 162.07 229.141 162.07C230.16 162.07 230.91 161.508 230.91 160.688C230.91 159.855 230.207 159.246 229 159.246H228.273V158.191H229C229.961 158.191 230.641 157.652 230.641 156.844C230.641 156.07 230.066 155.543 229.164 155.543C228.309 155.543 227.559 156.012 227.523 156.785H226.281C226.316 155.402 227.594 154.465 229.176 154.465C230.84 154.465 231.895 155.52 231.883 156.773C231.895 157.734 231.297 158.438 230.383 158.66V158.719C231.543 158.883 232.211 159.656 232.211 160.734C232.211 162.152 230.91 163.184 229.152 163.184Z" fill="white"/>
<rect x="23.4004" y="206.732" width="215" height="30" rx="4.42455" fill="#E1E8F3"/>
<path d="M89.3486 224.84C87.7373 224.84 86.5879 223.97 86.5449 222.702H87.748C87.791 223.39 88.4678 223.819 89.3379 223.819C90.2725 223.819 90.96 223.304 90.96 222.552C90.96 221.789 90.3154 221.23 89.209 221.23H88.543V220.264H89.209C90.0898 220.264 90.7129 219.77 90.7129 219.028C90.7129 218.319 90.1865 217.836 89.3594 217.836C88.5752 217.836 87.8877 218.266 87.8555 218.975H86.7168C86.749 217.707 87.9199 216.848 89.3701 216.848C90.8955 216.848 91.8623 217.814 91.8516 218.964C91.8623 219.845 91.3145 220.489 90.4766 220.693V220.747C91.54 220.897 92.1523 221.606 92.1523 222.595C92.1523 223.895 90.96 224.84 89.3486 224.84ZM96.4062 216.955V224.732H95.2139V218.137H95.1709L93.3125 219.351V218.223L95.2461 216.955H96.4062ZM101.09 224.84C99.2852 224.84 98.2324 223.39 98.2324 220.844C98.2324 218.319 99.3066 216.848 101.09 216.848C102.873 216.848 103.947 218.319 103.947 220.844C103.947 223.39 102.884 224.84 101.09 224.84ZM101.09 223.819C102.143 223.819 102.766 222.788 102.766 220.844C102.766 218.91 102.132 217.847 101.09 217.847C100.048 217.847 99.4141 218.91 99.4141 220.844C99.4141 222.788 100.037 223.819 101.09 223.819ZM110.199 216.751V217.288C110.188 217.933 110.188 218.889 109.952 220.135L108.942 220.038C109.152 218.969 109.184 218.196 109.2 217.589H105.344V216.751H110.199ZM107.739 218.91V220.897C108.771 220.865 109.834 220.79 110.801 220.65L110.865 221.392C108.856 221.746 106.558 221.778 104.86 221.789L104.764 220.962C105.354 220.957 106.026 220.951 106.729 220.93V218.91H107.739ZM112.455 216.021V219.082H113.776V219.941H112.455V223.25H111.413V216.021H112.455ZM112.767 224.614V225.441H106.225V222.595H107.245V224.614H112.767ZM120.576 218.856C120.576 220.468 121.629 222.133 123.111 222.767L122.553 223.562C121.419 223.062 120.517 222.004 120.071 220.715C119.625 222.09 118.718 223.261 117.601 223.809L117.01 223.003C118.46 222.326 119.534 220.511 119.545 218.856V217.836H117.343V216.987H122.768V217.836H120.576V218.856ZM125.002 216.021V225.646H123.981V216.021H125.002ZM134.036 216.021V219.92H135.583V220.769H134.036V225.646H133.026V216.021H134.036ZM132.188 217.524V218.362H126.484V217.524H128.858V216.149H129.879V217.524H132.188ZM129.374 219.071C130.749 219.071 131.759 219.995 131.77 221.306C131.759 222.627 130.749 223.54 129.374 223.551C127.988 223.54 126.979 222.627 126.979 221.306C126.979 219.995 127.988 219.071 129.374 219.071ZM129.374 219.909C128.558 219.909 127.945 220.479 127.956 221.306C127.945 222.144 128.558 222.702 129.374 222.691C130.19 222.702 130.792 222.144 130.792 221.306C130.792 220.479 130.19 219.909 129.374 219.909ZM141.706 224.84C140.234 224.84 139.128 223.938 139.074 222.702H140.224C140.288 223.368 140.922 223.852 141.706 223.852C142.651 223.852 143.328 223.164 143.328 222.24C143.328 221.295 142.63 220.607 141.652 220.597C141.029 220.597 140.557 220.801 140.288 221.284H139.171L139.676 216.955H144.08V217.965H140.653L140.396 220.146H140.471C140.793 219.834 141.341 219.619 141.932 219.619C143.393 219.619 144.478 220.704 144.478 222.208C144.478 223.744 143.328 224.84 141.706 224.84ZM154.178 220.854V221.692H145.401V220.854H154.178ZM150.289 216.01V216.934H153.297V217.75H150.354C150.461 218.679 151.793 219.377 153.705 219.533L153.394 220.317C151.729 220.162 150.38 219.603 149.784 218.706C149.183 219.603 147.834 220.162 146.186 220.317L145.863 219.533C147.765 219.377 149.097 218.679 149.215 217.75H146.282V216.934H149.279V216.01H150.289ZM149.784 222.412C151.879 222.412 153.104 222.981 153.104 224.023C153.104 225.065 151.879 225.635 149.784 225.624C147.679 225.635 146.443 225.065 146.443 224.023C146.443 222.981 147.679 222.412 149.784 222.412ZM149.784 223.175C148.302 223.175 147.475 223.476 147.475 224.023C147.475 224.571 148.302 224.861 149.784 224.851C151.245 224.861 152.083 224.571 152.083 224.023C152.083 223.476 151.245 223.175 149.784 223.175ZM165.575 216.021V221.188H164.555V216.021H165.575ZM160.279 221.649V222.734H164.565V221.649H165.575V225.527H159.28V221.649H160.279ZM160.279 224.689H164.565V223.54H160.279V224.689ZM160.354 216.461C161.826 216.461 162.911 217.374 162.911 218.695C162.911 220.017 161.826 220.93 160.354 220.919C158.883 220.93 157.787 220.017 157.787 218.695C157.787 217.374 158.883 216.461 160.354 216.461ZM160.354 217.32C159.441 217.31 158.786 217.879 158.786 218.695C158.786 219.522 159.441 220.081 160.354 220.081C161.257 220.081 161.912 219.522 161.912 218.695C161.912 217.879 161.257 217.31 160.354 217.32ZM174.76 216.622V217.471C174.76 218.384 174.76 219.372 174.491 220.747H175.877V221.585H171.978V225.656H170.946V221.585H167.101V220.747H173.46C173.75 219.377 173.75 218.368 173.75 217.471V217.46H168.175V216.622H174.76Z" fill="#5C5C5C"/>
</g>
<defs>
<filter id="filter0_d_2873_26077" x="0.000391006" y="0.000391006" width="388.8" height="258.8" filterUnits="userSpaceOnUse" color-interpolation-filters="sRGB">
<feFlood flood-opacity="0" result="BackgroundImageFix"/>
<feColorMatrix in="SourceAlpha" type="matrix" values="0 0 0 0 0 0 0 0 0 0 0 0 0 0 0 0 0 0 127 0" result="hardAlpha"/>
<feOffset/>
<feGaussianBlur stdDeviation="4.7"/>
<feComposite in2="hardAlpha" operator="out"/>
<feColorMatrix type="matrix" values="0 0 0 0 0.0235294 0 0 0 0 0.219608 0 0 0 0 0.490196 0 0 0 0.28 0"/>
<feBlend mode="normal" in2="BackgroundImageFix" result="effect1_dropShadow_2873_26077"/>
<feBlend mode="normal" in="SourceGraphic" in2="effect1_dropShadow_2873_26077" result="shape"/>
</filter>
</defs>
</svg>
